<svg width="26.000000" height="26.000000" viewBox="0 0 26 26" fill="none" xmlns="http://www.w3.org/2000/svg" xmlns:xlink="http://www.w3.org/1999/xlink">
	<desc>
			Created with Pixso.
	</desc>
	<defs/>
	<path id="Vector" d="M13 0C5.82098 0 0 5.82092 0 13C0 20.1791 5.82098 26 13 26C20.179 26 26 20.1791 26 13C26 5.82092 20.179 0 13 0ZM13 23.7947C7.03973 23.7947 2.20538 18.9603 2.20538 13C2.20538 7.03967 7.03973 2.20532 13 2.20532C18.9603 2.20532 23.7946 7.03967 23.7946 13C23.7946 18.9603 18.9603 23.7947 13 23.7947ZM13.1625 8.33679C14.7004 8.33679 15.7451 9.31763 15.8611 10.757C15.8699 10.8788 15.9714 10.9717 16.0933 10.9717L17.7386 10.9717C17.8141 10.9717 17.875 10.9108 17.875 10.8353C17.875 8.31946 15.8902 6.55798 13.1538 6.55798C9.96472 6.55798 8.125 8.71118 8.125 12.2688L8.125 13.7864C8.125 17.3179 9.96472 19.442 13.1538 19.442C15.8815 19.442 17.875 17.7357 17.875 15.3389C17.875 15.2634 17.8141 15.2025 17.7386 15.2025L16.0904 15.2025C15.9685 15.2025 15.8699 15.2953 15.8583 15.4143C15.7364 16.752 14.6946 17.6719 13.1596 17.6719C11.2647 17.6719 10.1969 16.282 10.1969 13.795L10.1969 12.2688C10.1998 9.74414 11.2705 8.33679 13.1625 8.33679Z" fill="#E4E4E4" fill-opacity="1.000000" fill-rule="nonzero"/>
</svg>
