<svg width="50.000000" height="49.997925" viewBox="0 0 50 49.9979" fill="none" xmlns="http://www.w3.org/2000/svg" xmlns:xlink="http://www.w3.org/1999/xlink">
	<desc>
			Created with Pixso.
	</desc>
	<defs/>
	<path id="vk" d="M19.7687 0.00622559L21.2875 0L28.7125 0L30.2333 0.00622559L32.1375 0.0270996L33.0396 0.041626L33.9104 0.0645752L34.75 0.09375L35.5583 0.127075L36.3375 0.170776L37.0875 0.2229L37.8062 0.2854L38.5 0.354126C42.125 0.762451 44.6104 1.63745 46.4854 3.51245C48.3604 5.38745 49.2354 7.87085 49.6437 11.4979L49.7146 12.1917L49.775 12.9125L49.8271 13.6625L49.8687 14.4396L49.9208 15.6646L49.9458 16.5188L49.9729 17.8605L49.9917 19.7667L50 21.8083L49.9979 28.7104L49.9917 30.2312L49.9708 32.1354L49.9562 33.0375L49.9333 33.9083L49.9042 34.7479L49.8708 35.5563L49.8271 36.3354L49.775 37.0854L49.7125 37.8042L49.6437 38.4979C49.2354 42.1229 48.3604 44.6083 46.4854 46.4833C44.6104 48.3583 42.1271 49.2333 38.5 49.6417L37.8062 49.7125L37.0854 49.7729L36.3354 49.825L35.5583 49.8667L34.3333 49.9187L33.4792 49.9437L32.1375 49.9708L30.2313 49.9896L28.1896 49.9979L21.2875 49.9958L19.7667 49.9896L17.8625 49.9688L16.9604 49.9542L16.0896 49.9313L15.25 49.9021L14.4417 49.8688L13.6625 49.825L12.9125 49.7729L12.1938 49.7104L11.5 49.6417C7.875 49.2333 5.38959 48.3583 3.51459 46.4833C1.63959 44.6083 0.764587 42.125 0.356262 38.4979L0.285431 37.8042L0.225006 37.0834L0.172913 36.3334L0.131256 35.5563L0.0791626 34.3313L0.0541687 33.4771L0.0270691 32.1354L0.0083313 30.2291L0 28.1875L0.0020752 21.2854L0.0083313 19.7645L0.0291748 17.8605L0.0437622 16.9584L0.0666809 16.0875L0.0958252 15.2479L0.129181 14.4396L0.172913 13.6604L0.225006 12.9104L0.287506 12.1917L0.356262 11.4979C0.764587 7.87292 1.63959 5.38745 3.51459 3.51245C5.38959 1.63745 7.87292 0.762451 11.5 0.354126L12.1938 0.283325L12.9146 0.2229L13.6646 0.170776L14.4417 0.12915L15.6667 0.0770264L16.5208 0.052124L17.8625 0.0250244L19.7687 0.00622559ZM14.1458 15.2063L8.4375 15.2063C8.70834 28.2063 15.2083 36.0188 26.6042 36.0188L27.25 36.0188L27.25 28.5813C31.4375 28.9979 34.6042 32.0604 35.875 36.0188L41.7917 36.0188C40.1667 30.1021 35.8958 26.8313 33.2292 25.5813C35.8958 24.0396 39.6458 20.2896 40.5417 15.2063L35.1667 15.2063C34 19.3313 30.5417 23.0813 27.25 23.4354L27.25 15.2063L21.875 15.2063L21.875 29.6229C18.5417 28.7896 14.3333 24.7479 14.1458 15.2063Z" fill="#E4E4E4" fill-opacity="1.000000" fill-rule="nonzero"/>
</svg>
